<svg width="148" height="48" viewBox="0 0 148 48" fill="none" xmlns="http://www.w3.org/2000/svg">
<path d="M11.9995 48L18.0002 36.0221H0L11.9995 0.00358415L35.9998 0L24 23.9558H48L11.9995 48Z" fill="#FF4B0A"/>
<path d="M60 20.0801L63.672 4.24023H69.9359C71.5359 4.24023 72.8639 4.51223 73.9199 5.05623C76.0941 6.14334 77.0879 8.36433 77.0879 10.7202C77.0879 13.161 76.4995 15.7134 74.7839 17.5362C73.098 19.3656 70.688 20.0801 68.256 20.0801H60ZM66.528 16.0962H67.848C69.8499 16.0962 70.9545 14.2432 71.3039 12.4962C71.5228 11.4992 71.72 10.2483 71.2799 9.2802C70.9599 8.57621 70.3279 8.22421 69.3359 8.22421H68.328L66.528 16.0962Z" fill="#FF4B0A"/>
<path d="M83.9275 20.3201C81.7977 20.3201 79.6308 19.5576 78.4315 17.7042C77.2759 15.8262 77.4996 13.2943 78.4795 11.3922C79.7248 8.93826 82.3075 7.84021 84.9595 7.84021C87.074 7.84021 89.2766 8.60365 90.4314 10.4802C91.6326 12.3366 91.371 14.8694 90.4074 16.7682C89.1574 19.2315 86.5878 20.3201 83.9275 20.3201ZM83.9755 16.6242C85.1375 16.6242 85.5605 14.7897 85.7275 13.8882C85.8668 13.1082 86.0942 11.5362 84.8875 11.5362C84.1242 11.5362 83.7212 12.3909 83.4955 13.0002C83.1811 13.8177 82.3271 16.6242 83.9755 16.6242Z" fill="#FF4B0A"/>
<path d="M141.111 8.08021H147.303L140.655 20.0801H133.791L132.711 8.08021H138.135L137.923 16.4793L141.111 8.08021Z" fill="#FF4B0A"/>
<path d="M66.552 39.976H73.9679L73.0079 44.08H60L63.672 28.2401H69.2639L66.552 39.976Z" fill="#FF4B0A"/>
<path d="M80.4535 31.3121C78.9835 31.3121 77.5433 30.803 77.8135 29.0801C78.0657 27.3151 79.3007 26.7041 80.9815 26.7041C82.3549 26.7041 83.9547 27.1884 83.6695 28.8641C83.4268 30.7143 82.2057 31.3121 80.4535 31.3121ZM82.8055 32.0801L80.0215 44.08H74.5015L77.2855 32.0801H82.8055Z" fill="#FF4B0A"/>
<path d="M81.8603 44.08L84.6443 32.0801H89.5643C89.5643 32.0801 89.3082 33.7104 89.1441 34.7551C89.9597 33.0009 91.5788 31.8401 93.5482 31.8401C96.1179 31.8401 97.2338 33.9869 96.7162 36.256L94.8922 44.08H89.3723L91.0043 37.12C91.131 36.5368 90.9152 35.92 90.2363 35.92C89.3853 35.92 89.0491 36.8141 88.8923 37.504L87.3803 44.08H81.8603Z" fill="#FF4B0A"/>
<path d="M122.266 44.08L125.05 32.0801H130.018L129.418 35.2335C129.843 34.1716 130.426 33.1528 131.386 32.4881C132.026 32.0561 132.802 31.8401 133.714 31.8401C134.072 31.8401 134.499 31.8738 134.818 32.0561L133.546 36.568C132.264 35.9269 130.534 36.3957 129.658 37.48C129.338 37.896 129.09 38.464 128.914 39.184L127.786 44.08H122.266Z" fill="#FF4B0A"/>
<path d="M97.914 20.3199C98.9655 20.3199 100.086 20.2196 101.082 19.8639L101.754 16.5519C100.492 16.9305 98.3451 16.7663 98.874 14.9679L99.6088 11.8H102.594L103.458 8.07998H100.472L101.418 4L95.538 5.53599L94.9495 8.07998H92.8741L92.0101 11.8H94.0889L93.3061 15.1839C92.5927 18.394 94.6915 20.3199 97.914 20.3199Z" fill="#FF4B0A"/>
<path fill-rule="evenodd" clip-rule="evenodd" d="M110.863 16.3842C111.103 16.1602 111.271 15.9042 111.367 15.6162L115.975 17.1042C115.104 19.5419 112.068 20.2961 109.759 20.2961C107.65 20.2961 105.411 19.6066 104.191 17.7762C102.948 15.8747 103.172 13.0792 104.239 11.1522C105.508 8.88899 107.932 7.84021 110.455 7.84021C112.51 7.84021 114.742 8.53144 115.831 10.4082C116.649 11.7719 116.765 13.622 116.311 15.1362H108.391C108.388 15.7005 108.546 16.3099 109.111 16.5522C109.643 16.7651 110.418 16.7976 110.863 16.3842ZM111.175 11.9442C111.03 11.6252 110.701 11.4642 110.359 11.4642C109.396 11.4642 108.854 12.2342 108.627 13.0962H111.295C111.292 12.7104 111.387 12.2977 111.175 11.9442Z" fill="#FF4B0A"/>
<path fill-rule="evenodd" clip-rule="evenodd" d="M116.6 40.408C116.84 40.184 117.008 39.928 117.104 39.64L121.712 41.128C120.841 43.5657 117.805 44.32 115.496 44.32C113.388 44.32 111.148 43.6305 109.928 41.8C108.685 39.8986 108.909 37.103 109.976 35.1761C111.245 32.9129 113.669 31.8641 116.192 31.8641C118.247 31.8641 120.479 32.5553 121.568 34.4321C122.386 35.7957 122.502 37.6459 122.048 39.16H114.128C114.125 39.7244 114.283 40.3338 114.848 40.576C115.38 40.7889 116.155 40.8215 116.6 40.408ZM116.912 35.9681C116.767 35.6491 116.438 35.4881 116.096 35.4881C115.133 35.4881 114.592 36.2581 114.364 37.1201H117.033C117.029 36.7343 117.124 36.3216 116.912 35.9681Z" fill="#FF4B0A"/>
<path d="M103.654 44.32C104.705 44.32 105.826 44.2197 106.822 43.864L107.494 40.552C106.232 40.9306 104.085 40.7664 104.614 38.968L105.349 35.8H108.334L109.198 32.0801H106.212L107.158 28.0001L101.278 29.5361L100.689 32.0801H98.614L97.75 35.8H99.8289L99.046 39.184C98.3326 42.3941 100.431 44.32 103.654 44.32Z" fill="#FF4B0A"/>
<path d="M119.308 8.08021L116.524 20.0801H122.044L123.556 13.5042C123.713 12.8142 124.049 11.9202 124.9 11.9202C125.579 11.9202 125.795 12.537 125.668 13.1202L124.036 20.0801H129.556L131.38 12.2562C131.915 9.90943 130.688 7.84021 128.212 7.84021C126.243 7.84021 124.624 9.00107 123.808 10.7552L124.228 8.08021H119.308Z" fill="#FF4B0A"/>
</svg>
